<mxfile host="app.diagrams.net" agent="Mozilla/5.0 (Windows NT 10.0; Win64; x64) AppleWebKit/537.36 (KHTML, like Gecko) Chrome/139.0.0.0 Safari/537.36" version="28.1.2">
  <diagram name="Page-1" id="gVOBkqxqK4I96EU3WtzF">
    <mxGraphModel dx="1042" dy="562" grid="1" gridSize="10" guides="1" tooltips="1" connect="1" arrows="1" fold="1" page="1" pageScale="1" pageWidth="850" pageHeight="1100" math="0" shadow="0">
      <root>
        <mxCell id="0" />
        <mxCell id="1" parent="0" />
        <mxCell id="pg8HzuMGLpJnSBFaGJBY-1" value="Admin" style="html=1;whiteSpace=wrap;" parent="1" vertex="1">
          <mxGeometry x="10" y="100" width="180" height="60" as="geometry" />
        </mxCell>
        <mxCell id="pg8HzuMGLpJnSBFaGJBY-3" value="" style="ellipse;whiteSpace=wrap;html=1;aspect=fixed;" parent="1" vertex="1">
          <mxGeometry x="400" y="72.5" width="105" height="105" as="geometry" />
        </mxCell>
        <mxCell id="pg8HzuMGLpJnSBFaGJBY-4" value="" style="endArrow=none;html=1;rounded=0;entryX=0.926;entryY=0.271;entryDx=0;entryDy=0;exitX=0.065;exitY=0.264;exitDx=0;exitDy=0;entryPerimeter=0;exitPerimeter=0;" parent="1" source="pg8HzuMGLpJnSBFaGJBY-3" target="pg8HzuMGLpJnSBFaGJBY-3" edge="1">
          <mxGeometry width="50" height="50" relative="1" as="geometry">
            <mxPoint x="415.37689398770635" y="97.87689398770635" as="sourcePoint" />
            <mxPoint x="489.62310601229365" y="97.87689398770635" as="targetPoint" />
          </mxGeometry>
        </mxCell>
        <mxCell id="pg8HzuMGLpJnSBFaGJBY-5" value="1.0" style="text;html=1;align=center;verticalAlign=middle;whiteSpace=wrap;rounded=0;" parent="1" vertex="1">
          <mxGeometry x="422" y="75" width="60" height="30" as="geometry" />
        </mxCell>
        <mxCell id="pg8HzuMGLpJnSBFaGJBY-6" value="Login" style="text;html=1;align=center;verticalAlign=middle;whiteSpace=wrap;rounded=0;" parent="1" vertex="1">
          <mxGeometry x="425" y="120" width="60" height="30" as="geometry" />
        </mxCell>
        <mxCell id="pg8HzuMGLpJnSBFaGJBY-7" value="Request for Login" style="html=1;verticalAlign=bottom;endArrow=block;curved=0;rounded=0;exitX=1;exitY=0;exitDx=0;exitDy=0;entryX=0.032;entryY=0.366;entryDx=0;entryDy=0;entryPerimeter=0;" parent="1" target="pg8HzuMGLpJnSBFaGJBY-3" edge="1">
          <mxGeometry width="80" relative="1" as="geometry">
            <mxPoint x="190" y="110" as="sourcePoint" />
            <mxPoint x="400" y="110" as="targetPoint" />
          </mxGeometry>
        </mxCell>
        <mxCell id="pg8HzuMGLpJnSBFaGJBY-8" value="&lt;span style=&quot;color: rgba(0, 0, 0, 0); font-family: monospace; font-size: 0px; text-align: start; background-color: rgb(27, 29, 30);&quot;&gt;%3CmxGraphModel%3E%3Croot%3E%3CmxCell%20id%3D%220%22%2F%3E%3CmxCell%20id%3D%221%22%20parent%3D%220%22%2F%3E%3CmxCell%20id%3D%222%22%20value%3D%22Response%22%20style%3D%22text%3Bhtml%3D1%3Balign%3Dcenter%3BverticalAlign%3Dmiddle%3Bresizable%3D0%3Bpoints%3D%5B%5D%3Bautosize%3D1%3BstrokeColor%3Dnone%3BfillColor%3Dnone%3B%22%20vertex%3D%221%22%20parent%3D%221%22%3E%3CmxGeometry%20x%3D%22567.5%22%20y%3D%22885%22%20width%3D%2280%22%20height%3D%2230%22%20as%3D%22geometry%22%2F%3E%3C%2FmxCell%3E%3C%2Froot%3E%3C%2FmxGraphModel%3E&lt;/span&gt;&lt;span style=&quot;color: rgba(0, 0, 0, 0); font-family: monospace; font-size: 0px; text-align: start; background-color: rgb(27, 29, 30);&quot;&gt;%3CmxGraphModel%3E%3Croot%3E%3CmxCell%20id%3D%220%22%2F%3E%3CmxCell%20id%3D%221%22%20parent%3D%220%22%2F%3E%3CmxCell%20id%3D%222%22%20value%3D%22Response%22%20style%3D%22text%3Bhtml%3D1%3Balign%3Dcenter%3BverticalAlign%3Dmiddle%3Bresizable%3D0%3Bpoints%3D%5B%5D%3Bautosize%3D1%3BstrokeColor%3Dnone%3BfillColor%3Dnone%3B%22%20vertex%3D%221%22%20parent%3D%221%22%3E%3CmxGeometry%20x%3D%22567.5%22%20y%3D%22885%22%20width%3D%2280%22%20height%3D%2230%22%20as%3D%22geometry%22%2F%3E%3C%2FmxCell%3E%3C%2Froot%3E%3C%2FmxGraphModel%3E&lt;/span&gt;" style="html=1;verticalAlign=bottom;endArrow=block;curved=0;rounded=0;entryX=0.999;entryY=0.804;entryDx=0;entryDy=0;exitX=0.035;exitY=0.719;exitDx=0;exitDy=0;exitPerimeter=0;entryPerimeter=0;" parent="1" source="pg8HzuMGLpJnSBFaGJBY-3" target="pg8HzuMGLpJnSBFaGJBY-1" edge="1">
          <mxGeometry x="0.0007" width="80" relative="1" as="geometry">
            <mxPoint x="280" y="170" as="sourcePoint" />
            <mxPoint x="360" y="170" as="targetPoint" />
            <mxPoint as="offset" />
          </mxGeometry>
        </mxCell>
        <mxCell id="pg8HzuMGLpJnSBFaGJBY-9" value="" style="shape=link;html=1;rounded=0;width=39.56521739130435;" parent="1" edge="1">
          <mxGeometry width="100" relative="1" as="geometry">
            <mxPoint x="700" y="129.57" as="sourcePoint" />
            <mxPoint x="800" y="129.57" as="targetPoint" />
            <Array as="points">
              <mxPoint x="750" y="130" />
            </Array>
          </mxGeometry>
        </mxCell>
        <mxCell id="pg8HzuMGLpJnSBFaGJBY-10" value="admin_master" style="text;html=1;align=center;verticalAlign=middle;whiteSpace=wrap;rounded=0;" parent="1" vertex="1">
          <mxGeometry x="728" y="115" width="60" height="30" as="geometry" />
        </mxCell>
        <mxCell id="pg8HzuMGLpJnSBFaGJBY-11" value="" style="endArrow=classic;html=1;rounded=0;entryX=0.971;entryY=0.435;entryDx=0;entryDy=0;entryPerimeter=0;" parent="1" edge="1">
          <mxGeometry width="50" height="50" relative="1" as="geometry">
            <mxPoint x="702.02" y="145" as="sourcePoint" />
            <mxPoint x="503.9749999999999" y="143.17499999999995" as="targetPoint" />
          </mxGeometry>
        </mxCell>
        <mxCell id="pg8HzuMGLpJnSBFaGJBY-12" value="" style="endArrow=classic;html=1;rounded=0;exitX=0.994;exitY=0.644;exitDx=0;exitDy=0;exitPerimeter=0;entryX=0.004;entryY=0.837;entryDx=0;entryDy=0;entryPerimeter=0;" parent="1" edge="1">
          <mxGeometry width="50" height="50" relative="1" as="geometry">
            <mxPoint x="502.6900000000001" y="119.01" as="sourcePoint" />
            <mxPoint x="703.32" y="119.00000000000001" as="targetPoint" />
          </mxGeometry>
        </mxCell>
        <mxCell id="pg8HzuMGLpJnSBFaGJBY-13" value="Request For Login" style="text;html=1;align=center;verticalAlign=middle;whiteSpace=wrap;rounded=0;" parent="1" vertex="1">
          <mxGeometry x="519.5" y="92" width="170" height="30" as="geometry" />
        </mxCell>
        <mxCell id="pg8HzuMGLpJnSBFaGJBY-14" value="Respones" style="text;html=1;align=center;verticalAlign=middle;whiteSpace=wrap;rounded=0;" parent="1" vertex="1">
          <mxGeometry x="575" y="120" width="60" height="30" as="geometry" />
        </mxCell>
        <mxCell id="pg8HzuMGLpJnSBFaGJBY-27" value="" style="ellipse;whiteSpace=wrap;html=1;aspect=fixed;" parent="1" vertex="1">
          <mxGeometry x="400" y="210" width="105" height="105" as="geometry" />
        </mxCell>
        <mxCell id="pg8HzuMGLpJnSBFaGJBY-28" value="" style="endArrow=none;html=1;rounded=0;entryX=0.926;entryY=0.271;entryDx=0;entryDy=0;exitX=0.065;exitY=0.264;exitDx=0;exitDy=0;entryPerimeter=0;exitPerimeter=0;" parent="1" source="pg8HzuMGLpJnSBFaGJBY-27" target="pg8HzuMGLpJnSBFaGJBY-27" edge="1">
          <mxGeometry width="50" height="50" relative="1" as="geometry">
            <mxPoint x="415.37689398770635" y="235.37689398770635" as="sourcePoint" />
            <mxPoint x="489.62310601229365" y="235.37689398770635" as="targetPoint" />
          </mxGeometry>
        </mxCell>
        <mxCell id="pg8HzuMGLpJnSBFaGJBY-29" value="2.0" style="text;html=1;align=center;verticalAlign=middle;whiteSpace=wrap;rounded=0;" parent="1" vertex="1">
          <mxGeometry x="422" y="212.5" width="60" height="30" as="geometry" />
        </mxCell>
        <mxCell id="pg8HzuMGLpJnSBFaGJBY-30" value="View User Detail" style="text;html=1;align=center;verticalAlign=middle;whiteSpace=wrap;rounded=0;" parent="1" vertex="1">
          <mxGeometry x="425" y="257.5" width="60" height="30" as="geometry" />
        </mxCell>
        <mxCell id="pg8HzuMGLpJnSBFaGJBY-31" value="" style="html=1;verticalAlign=bottom;endArrow=block;curved=0;rounded=0;exitX=0.929;exitY=1;exitDx=0;exitDy=0;entryX=0.032;entryY=0.366;entryDx=0;entryDy=0;entryPerimeter=0;exitPerimeter=0;" parent="1" source="pg8HzuMGLpJnSBFaGJBY-1" target="pg8HzuMGLpJnSBFaGJBY-27" edge="1">
          <mxGeometry x="0.2719" y="-2" width="80" relative="1" as="geometry">
            <mxPoint x="190" y="247.5" as="sourcePoint" />
            <mxPoint x="400" y="247.5" as="targetPoint" />
            <Array as="points">
              <mxPoint x="177" y="248" />
            </Array>
            <mxPoint as="offset" />
          </mxGeometry>
        </mxCell>
        <mxCell id="pg8HzuMGLpJnSBFaGJBY-32" value="" style="html=1;verticalAlign=bottom;endArrow=block;curved=0;rounded=0;entryX=0.849;entryY=1.003;entryDx=0;entryDy=0;exitX=-0.01;exitY=0.564;exitDx=0;exitDy=0;entryPerimeter=0;exitPerimeter=0;" parent="1" source="pg8HzuMGLpJnSBFaGJBY-27" target="pg8HzuMGLpJnSBFaGJBY-1" edge="1">
          <mxGeometry width="80" relative="1" as="geometry">
            <mxPoint x="403.67499999999995" y="275.495" as="sourcePoint" />
            <mxPoint x="190" y="275.5" as="targetPoint" />
            <Array as="points">
              <mxPoint x="163" y="269" />
            </Array>
          </mxGeometry>
        </mxCell>
        <mxCell id="pg8HzuMGLpJnSBFaGJBY-33" value="" style="shape=link;html=1;rounded=0;width=39.56521739130435;" parent="1" edge="1">
          <mxGeometry width="100" relative="1" as="geometry">
            <mxPoint x="700" y="267.07" as="sourcePoint" />
            <mxPoint x="800" y="267.07" as="targetPoint" />
            <Array as="points">
              <mxPoint x="750" y="267.5" />
            </Array>
          </mxGeometry>
        </mxCell>
        <mxCell id="pg8HzuMGLpJnSBFaGJBY-34" value="user _master" style="text;html=1;align=center;verticalAlign=middle;whiteSpace=wrap;rounded=0;" parent="1" vertex="1">
          <mxGeometry x="717" y="252.5" width="73" height="30" as="geometry" />
        </mxCell>
        <mxCell id="pg8HzuMGLpJnSBFaGJBY-35" value="" style="endArrow=classic;html=1;rounded=0;entryX=0.971;entryY=0.435;entryDx=0;entryDy=0;entryPerimeter=0;" parent="1" edge="1">
          <mxGeometry width="50" height="50" relative="1" as="geometry">
            <mxPoint x="702.02" y="282.83" as="sourcePoint" />
            <mxPoint x="501" y="282.50499999999994" as="targetPoint" />
          </mxGeometry>
        </mxCell>
        <mxCell id="pg8HzuMGLpJnSBFaGJBY-36" value="" style="endArrow=classic;html=1;rounded=0;exitX=0.994;exitY=0.644;exitDx=0;exitDy=0;exitPerimeter=0;entryX=0.004;entryY=0.837;entryDx=0;entryDy=0;entryPerimeter=0;" parent="1" edge="1">
          <mxGeometry width="50" height="50" relative="1" as="geometry">
            <mxPoint x="505.1800000000001" y="252.51" as="sourcePoint" />
            <mxPoint x="704.81" y="252.5" as="targetPoint" />
          </mxGeometry>
        </mxCell>
        <mxCell id="pg8HzuMGLpJnSBFaGJBY-37" value="User Details" style="text;html=1;align=center;verticalAlign=middle;whiteSpace=wrap;rounded=0;" parent="1" vertex="1">
          <mxGeometry x="524.5" y="222.5" width="170" height="30" as="geometry" />
        </mxCell>
        <mxCell id="pg8HzuMGLpJnSBFaGJBY-38" value="List Of User Details" style="text;html=1;align=center;verticalAlign=middle;whiteSpace=wrap;rounded=0;" parent="1" vertex="1">
          <mxGeometry x="545" y="256" width="125" height="30" as="geometry" />
        </mxCell>
        <mxCell id="pg8HzuMGLpJnSBFaGJBY-40" value="View user details" style="text;html=1;align=center;verticalAlign=middle;whiteSpace=wrap;rounded=0;" parent="1" vertex="1">
          <mxGeometry x="228" y="215" width="120" height="30" as="geometry" />
        </mxCell>
        <mxCell id="pg8HzuMGLpJnSBFaGJBY-42" value="" style="ellipse;whiteSpace=wrap;html=1;aspect=fixed;" parent="1" vertex="1">
          <mxGeometry x="400" y="330" width="105" height="105" as="geometry" />
        </mxCell>
        <mxCell id="pg8HzuMGLpJnSBFaGJBY-43" value="" style="endArrow=none;html=1;rounded=0;entryX=0.926;entryY=0.271;entryDx=0;entryDy=0;exitX=0.065;exitY=0.264;exitDx=0;exitDy=0;entryPerimeter=0;exitPerimeter=0;" parent="1" source="pg8HzuMGLpJnSBFaGJBY-42" target="pg8HzuMGLpJnSBFaGJBY-42" edge="1">
          <mxGeometry width="50" height="50" relative="1" as="geometry">
            <mxPoint x="415.37689398770635" y="355.37689398770635" as="sourcePoint" />
            <mxPoint x="489.62310601229365" y="355.37689398770635" as="targetPoint" />
          </mxGeometry>
        </mxCell>
        <mxCell id="pg8HzuMGLpJnSBFaGJBY-44" value="3.0" style="text;html=1;align=center;verticalAlign=middle;whiteSpace=wrap;rounded=0;" parent="1" vertex="1">
          <mxGeometry x="422" y="332.5" width="60" height="30" as="geometry" />
        </mxCell>
        <mxCell id="pg8HzuMGLpJnSBFaGJBY-45" value="Manage Brand" style="text;html=1;align=center;verticalAlign=middle;whiteSpace=wrap;rounded=0;" parent="1" vertex="1">
          <mxGeometry x="425" y="377.5" width="60" height="30" as="geometry" />
        </mxCell>
        <mxCell id="pg8HzuMGLpJnSBFaGJBY-46" value="" style="html=1;verticalAlign=bottom;endArrow=block;curved=0;rounded=0;exitX=0.75;exitY=1;exitDx=0;exitDy=0;entryX=0.032;entryY=0.366;entryDx=0;entryDy=0;entryPerimeter=0;" parent="1" source="pg8HzuMGLpJnSBFaGJBY-1" target="pg8HzuMGLpJnSBFaGJBY-42" edge="1">
          <mxGeometry width="80" relative="1" as="geometry">
            <mxPoint x="190" y="367.5" as="sourcePoint" />
            <mxPoint x="400" y="367.5" as="targetPoint" />
            <Array as="points">
              <mxPoint x="149" y="370" />
            </Array>
          </mxGeometry>
        </mxCell>
        <mxCell id="pg8HzuMGLpJnSBFaGJBY-47" value="" style="html=1;verticalAlign=bottom;endArrow=block;curved=0;rounded=0;entryX=0.676;entryY=1.017;entryDx=0;entryDy=0;entryPerimeter=0;exitX=-0.019;exitY=0.577;exitDx=0;exitDy=0;exitPerimeter=0;" parent="1" source="pg8HzuMGLpJnSBFaGJBY-42" target="pg8HzuMGLpJnSBFaGJBY-1" edge="1">
          <mxGeometry width="80" relative="1" as="geometry">
            <mxPoint x="390" y="390" as="sourcePoint" />
            <mxPoint x="140" y="270" as="targetPoint" />
            <Array as="points">
              <mxPoint x="137" y="390" />
            </Array>
          </mxGeometry>
        </mxCell>
        <mxCell id="pg8HzuMGLpJnSBFaGJBY-48" value="" style="shape=link;html=1;rounded=0;width=39.56521739130435;" parent="1" edge="1">
          <mxGeometry width="100" relative="1" as="geometry">
            <mxPoint x="700" y="387.07" as="sourcePoint" />
            <mxPoint x="800" y="387.07" as="targetPoint" />
            <Array as="points">
              <mxPoint x="750" y="387.5" />
            </Array>
          </mxGeometry>
        </mxCell>
        <mxCell id="pg8HzuMGLpJnSBFaGJBY-49" value="brand_master" style="text;html=1;align=center;verticalAlign=middle;whiteSpace=wrap;rounded=0;" parent="1" vertex="1">
          <mxGeometry x="727" y="372.5" width="60" height="30" as="geometry" />
        </mxCell>
        <mxCell id="pg8HzuMGLpJnSBFaGJBY-50" value="" style="endArrow=classic;html=1;rounded=0;entryX=0.971;entryY=0.435;entryDx=0;entryDy=0;entryPerimeter=0;" parent="1" edge="1">
          <mxGeometry width="50" height="50" relative="1" as="geometry">
            <mxPoint x="700" y="403" as="sourcePoint" />
            <mxPoint x="500.2349999999999" y="402.50499999999994" as="targetPoint" />
          </mxGeometry>
        </mxCell>
        <mxCell id="pg8HzuMGLpJnSBFaGJBY-51" value="" style="endArrow=classic;html=1;rounded=0;exitX=0.994;exitY=0.644;exitDx=0;exitDy=0;exitPerimeter=0;entryX=0.004;entryY=0.837;entryDx=0;entryDy=0;entryPerimeter=0;" parent="1" edge="1">
          <mxGeometry width="50" height="50" relative="1" as="geometry">
            <mxPoint x="503.0600000000001" y="377.51" as="sourcePoint" />
            <mxPoint x="703" y="377.5" as="targetPoint" />
          </mxGeometry>
        </mxCell>
        <mxCell id="pg8HzuMGLpJnSBFaGJBY-52" value="Manage Brand Details" style="text;html=1;align=center;verticalAlign=middle;whiteSpace=wrap;rounded=0;" parent="1" vertex="1">
          <mxGeometry x="520" y="347.5" width="170" height="30" as="geometry" />
        </mxCell>
        <mxCell id="pg8HzuMGLpJnSBFaGJBY-53" value="List Of Brand Details" style="text;html=1;align=center;verticalAlign=middle;whiteSpace=wrap;rounded=0;" parent="1" vertex="1">
          <mxGeometry x="542" y="377.5" width="125" height="30" as="geometry" />
        </mxCell>
        <mxCell id="pg8HzuMGLpJnSBFaGJBY-54" value="Manage Brand" style="text;html=1;align=center;verticalAlign=middle;whiteSpace=wrap;rounded=0;" parent="1" vertex="1">
          <mxGeometry x="228" y="342.5" width="120" height="30" as="geometry" />
        </mxCell>
        <mxCell id="pg8HzuMGLpJnSBFaGJBY-87" value="" style="ellipse;whiteSpace=wrap;html=1;aspect=fixed;" parent="1" vertex="1">
          <mxGeometry x="403" y="467" width="105" height="105" as="geometry" />
        </mxCell>
        <mxCell id="pg8HzuMGLpJnSBFaGJBY-88" value="" style="endArrow=none;html=1;rounded=0;entryX=0.926;entryY=0.271;entryDx=0;entryDy=0;exitX=0.065;exitY=0.264;exitDx=0;exitDy=0;entryPerimeter=0;exitPerimeter=0;" parent="1" source="pg8HzuMGLpJnSBFaGJBY-87" target="pg8HzuMGLpJnSBFaGJBY-87" edge="1">
          <mxGeometry width="50" height="50" relative="1" as="geometry">
            <mxPoint x="418.37689398770635" y="492.37689398770635" as="sourcePoint" />
            <mxPoint x="492.62310601229365" y="492.37689398770635" as="targetPoint" />
          </mxGeometry>
        </mxCell>
        <mxCell id="pg8HzuMGLpJnSBFaGJBY-89" value="4.0" style="text;html=1;align=center;verticalAlign=middle;whiteSpace=wrap;rounded=0;" parent="1" vertex="1">
          <mxGeometry x="425" y="469.5" width="60" height="30" as="geometry" />
        </mxCell>
        <mxCell id="pg8HzuMGLpJnSBFaGJBY-90" value="Manage Product" style="text;html=1;align=center;verticalAlign=middle;whiteSpace=wrap;rounded=0;" parent="1" vertex="1">
          <mxGeometry x="428" y="514.5" width="60" height="30" as="geometry" />
        </mxCell>
        <mxCell id="pg8HzuMGLpJnSBFaGJBY-91" value="" style="html=1;verticalAlign=bottom;endArrow=block;curved=0;rounded=0;entryX=0.032;entryY=0.366;entryDx=0;entryDy=0;entryPerimeter=0;" parent="1" target="pg8HzuMGLpJnSBFaGJBY-87" edge="1">
          <mxGeometry width="80" relative="1" as="geometry">
            <mxPoint x="120" y="160" as="sourcePoint" />
            <mxPoint x="403" y="504.5" as="targetPoint" />
            <Array as="points">
              <mxPoint x="120" y="505" />
            </Array>
          </mxGeometry>
        </mxCell>
        <mxCell id="pg8HzuMGLpJnSBFaGJBY-92" value="" style="html=1;verticalAlign=bottom;endArrow=block;curved=0;rounded=0;entryX=0.547;entryY=1.03;entryDx=0;entryDy=0;entryPerimeter=0;" parent="1" target="pg8HzuMGLpJnSBFaGJBY-1" edge="1">
          <mxGeometry width="80" relative="1" as="geometry">
            <mxPoint x="400" y="530" as="sourcePoint" />
            <mxPoint x="140" y="301" as="targetPoint" />
            <Array as="points">
              <mxPoint x="110" y="530" />
            </Array>
          </mxGeometry>
        </mxCell>
        <mxCell id="pg8HzuMGLpJnSBFaGJBY-93" value="" style="shape=link;html=1;rounded=0;width=39.56521739130435;" parent="1" edge="1">
          <mxGeometry width="100" relative="1" as="geometry">
            <mxPoint x="703" y="524.0699999999999" as="sourcePoint" />
            <mxPoint x="803" y="524.0699999999999" as="targetPoint" />
            <Array as="points">
              <mxPoint x="753" y="524.5" />
            </Array>
          </mxGeometry>
        </mxCell>
        <mxCell id="pg8HzuMGLpJnSBFaGJBY-94" value="product_master" style="text;html=1;align=center;verticalAlign=middle;whiteSpace=wrap;rounded=0;" parent="1" vertex="1">
          <mxGeometry x="727" y="509.5" width="60" height="30" as="geometry" />
        </mxCell>
        <mxCell id="pg8HzuMGLpJnSBFaGJBY-95" value="" style="endArrow=classic;html=1;rounded=0;entryX=0.971;entryY=0.435;entryDx=0;entryDy=0;entryPerimeter=0;" parent="1" edge="1">
          <mxGeometry width="50" height="50" relative="1" as="geometry">
            <mxPoint x="700" y="535" as="sourcePoint" />
            <mxPoint x="501.2349999999999" y="534.995" as="targetPoint" />
          </mxGeometry>
        </mxCell>
        <mxCell id="pg8HzuMGLpJnSBFaGJBY-96" value="" style="endArrow=classic;html=1;rounded=0;exitX=0.994;exitY=0.644;exitDx=0;exitDy=0;exitPerimeter=0;entryX=0.004;entryY=0.837;entryDx=0;entryDy=0;entryPerimeter=0;" parent="1" edge="1">
          <mxGeometry width="50" height="50" relative="1" as="geometry">
            <mxPoint x="506.5600000000001" y="509.51" as="sourcePoint" />
            <mxPoint x="708" y="509.5" as="targetPoint" />
          </mxGeometry>
        </mxCell>
        <mxCell id="pg8HzuMGLpJnSBFaGJBY-97" value="Manage Product Details" style="text;html=1;align=center;verticalAlign=middle;whiteSpace=wrap;rounded=0;" parent="1" vertex="1">
          <mxGeometry x="523.5" y="475" width="170" height="30" as="geometry" />
        </mxCell>
        <mxCell id="pg8HzuMGLpJnSBFaGJBY-98" value="List Of Product Details" style="text;html=1;align=center;verticalAlign=middle;whiteSpace=wrap;rounded=0;" parent="1" vertex="1">
          <mxGeometry x="539" y="509.5" width="128" height="30" as="geometry" />
        </mxCell>
        <mxCell id="pg8HzuMGLpJnSBFaGJBY-99" value="Manage Product" style="text;html=1;align=center;verticalAlign=middle;whiteSpace=wrap;rounded=0;" parent="1" vertex="1">
          <mxGeometry x="223" y="479.5" width="120" height="30" as="geometry" />
        </mxCell>
        <mxCell id="pg8HzuMGLpJnSBFaGJBY-102" value="" style="ellipse;whiteSpace=wrap;html=1;aspect=fixed;" parent="1" vertex="1">
          <mxGeometry x="404" y="595.5" width="105" height="105" as="geometry" />
        </mxCell>
        <mxCell id="pg8HzuMGLpJnSBFaGJBY-103" value="" style="endArrow=none;html=1;rounded=0;entryX=0.926;entryY=0.271;entryDx=0;entryDy=0;exitX=0.065;exitY=0.264;exitDx=0;exitDy=0;entryPerimeter=0;exitPerimeter=0;" parent="1" source="pg8HzuMGLpJnSBFaGJBY-102" target="pg8HzuMGLpJnSBFaGJBY-102" edge="1">
          <mxGeometry width="50" height="50" relative="1" as="geometry">
            <mxPoint x="419.37689398770635" y="620.8768939877064" as="sourcePoint" />
            <mxPoint x="493.62310601229365" y="620.8768939877064" as="targetPoint" />
          </mxGeometry>
        </mxCell>
        <mxCell id="pg8HzuMGLpJnSBFaGJBY-104" value="5.0" style="text;html=1;align=center;verticalAlign=middle;whiteSpace=wrap;rounded=0;" parent="1" vertex="1">
          <mxGeometry x="426" y="598" width="60" height="30" as="geometry" />
        </mxCell>
        <mxCell id="pg8HzuMGLpJnSBFaGJBY-105" value="View Review" style="text;html=1;align=center;verticalAlign=middle;whiteSpace=wrap;rounded=0;" parent="1" vertex="1">
          <mxGeometry x="429" y="643" width="60" height="30" as="geometry" />
        </mxCell>
        <mxCell id="pg8HzuMGLpJnSBFaGJBY-106" value="" style="html=1;verticalAlign=bottom;endArrow=block;curved=0;rounded=0;entryX=0.019;entryY=0.342;entryDx=0;entryDy=0;entryPerimeter=0;exitX=0.436;exitY=0.99;exitDx=0;exitDy=0;exitPerimeter=0;" parent="1" source="pg8HzuMGLpJnSBFaGJBY-1" target="pg8HzuMGLpJnSBFaGJBY-102" edge="1">
          <mxGeometry width="80" relative="1" as="geometry">
            <mxPoint x="90" y="180" as="sourcePoint" />
            <mxPoint x="403" y="625" as="targetPoint" />
            <Array as="points">
              <mxPoint x="90" y="630" />
            </Array>
          </mxGeometry>
        </mxCell>
        <mxCell id="pg8HzuMGLpJnSBFaGJBY-107" value="" style="html=1;verticalAlign=bottom;endArrow=block;curved=0;rounded=0;entryX=0.382;entryY=1.003;entryDx=0;entryDy=0;entryPerimeter=0;" parent="1" target="pg8HzuMGLpJnSBFaGJBY-1" edge="1">
          <mxGeometry width="80" relative="1" as="geometry">
            <mxPoint x="400" y="650" as="sourcePoint" />
            <mxPoint x="105" y="291.5" as="targetPoint" />
            <Array as="points">
              <mxPoint x="80" y="648" />
            </Array>
          </mxGeometry>
        </mxCell>
        <mxCell id="pg8HzuMGLpJnSBFaGJBY-108" value="" style="shape=link;html=1;rounded=0;width=39.56521739130435;" parent="1" edge="1">
          <mxGeometry width="100" relative="1" as="geometry">
            <mxPoint x="704" y="652.5699999999999" as="sourcePoint" />
            <mxPoint x="804" y="652.5699999999999" as="targetPoint" />
            <Array as="points">
              <mxPoint x="754" y="653" />
            </Array>
          </mxGeometry>
        </mxCell>
        <mxCell id="pg8HzuMGLpJnSBFaGJBY-109" value="review_master" style="text;html=1;align=center;verticalAlign=middle;whiteSpace=wrap;rounded=0;" parent="1" vertex="1">
          <mxGeometry x="730" y="638" width="60" height="30" as="geometry" />
        </mxCell>
        <mxCell id="pg8HzuMGLpJnSBFaGJBY-110" value="" style="endArrow=classic;html=1;rounded=0;exitX=0.008;exitY=0.124;exitDx=0;exitDy=0;entryX=0.971;entryY=0.435;entryDx=0;entryDy=0;entryPerimeter=0;exitPerimeter=0;" parent="1" edge="1">
          <mxGeometry width="50" height="50" relative="1" as="geometry">
            <mxPoint x="705" y="668.5500000000001" as="sourcePoint" />
            <mxPoint x="502" y="668.005" as="targetPoint" />
          </mxGeometry>
        </mxCell>
        <mxCell id="pg8HzuMGLpJnSBFaGJBY-111" value="" style="endArrow=classic;html=1;rounded=0;exitX=0.994;exitY=0.644;exitDx=0;exitDy=0;exitPerimeter=0;entryX=0.004;entryY=0.837;entryDx=0;entryDy=0;entryPerimeter=0;" parent="1" edge="1">
          <mxGeometry width="50" height="50" relative="1" as="geometry">
            <mxPoint x="509.0000000000001" y="637.0099999999999" as="sourcePoint" />
            <mxPoint x="707" y="637.0000000000001" as="targetPoint" />
          </mxGeometry>
        </mxCell>
        <mxCell id="pg8HzuMGLpJnSBFaGJBY-112" value="View Review Details" style="text;html=1;align=center;verticalAlign=middle;whiteSpace=wrap;rounded=0;" parent="1" vertex="1">
          <mxGeometry x="524.5" y="608" width="170" height="30" as="geometry" />
        </mxCell>
        <mxCell id="pg8HzuMGLpJnSBFaGJBY-113" value="List Of Review Details" style="text;html=1;align=center;verticalAlign=middle;whiteSpace=wrap;rounded=0;" parent="1" vertex="1">
          <mxGeometry x="534" y="638" width="151" height="30" as="geometry" />
        </mxCell>
        <mxCell id="pg8HzuMGLpJnSBFaGJBY-114" value="View Review" style="text;html=1;align=center;verticalAlign=middle;whiteSpace=wrap;rounded=0;" parent="1" vertex="1">
          <mxGeometry x="210" y="608" width="156" height="30" as="geometry" />
        </mxCell>
        <mxCell id="pg8HzuMGLpJnSBFaGJBY-118" value="" style="ellipse;whiteSpace=wrap;html=1;aspect=fixed;" parent="1" vertex="1">
          <mxGeometry x="404" y="723" width="105" height="105" as="geometry" />
        </mxCell>
        <mxCell id="pg8HzuMGLpJnSBFaGJBY-119" value="" style="endArrow=none;html=1;rounded=0;entryX=0.926;entryY=0.271;entryDx=0;entryDy=0;entryPerimeter=0;" parent="1" target="pg8HzuMGLpJnSBFaGJBY-118" edge="1">
          <mxGeometry width="50" height="50" relative="1" as="geometry">
            <mxPoint x="411" y="751" as="sourcePoint" />
            <mxPoint x="493.62310601229365" y="748.3768939877064" as="targetPoint" />
          </mxGeometry>
        </mxCell>
        <mxCell id="pg8HzuMGLpJnSBFaGJBY-120" value="6.0" style="text;html=1;align=center;verticalAlign=middle;whiteSpace=wrap;rounded=0;" parent="1" vertex="1">
          <mxGeometry x="426" y="725.5" width="60" height="30" as="geometry" />
        </mxCell>
        <mxCell id="pg8HzuMGLpJnSBFaGJBY-121" value="Manage Order" style="text;html=1;align=center;verticalAlign=middle;whiteSpace=wrap;rounded=0;" parent="1" vertex="1">
          <mxGeometry x="429" y="770.5" width="60" height="30" as="geometry" />
        </mxCell>
        <mxCell id="pg8HzuMGLpJnSBFaGJBY-122" value="" style="html=1;verticalAlign=bottom;endArrow=block;curved=0;rounded=0;exitX=0.25;exitY=1;exitDx=0;exitDy=0;" parent="1" source="pg8HzuMGLpJnSBFaGJBY-1" edge="1">
          <mxGeometry width="80" relative="1" as="geometry">
            <mxPoint x="85" y="287.5" as="sourcePoint" />
            <mxPoint x="403" y="767.5" as="targetPoint" />
            <Array as="points">
              <mxPoint x="60" y="768" />
            </Array>
          </mxGeometry>
        </mxCell>
        <mxCell id="pg8HzuMGLpJnSBFaGJBY-123" value="" style="html=1;verticalAlign=bottom;endArrow=block;curved=0;rounded=0;exitX=0.023;exitY=0.634;exitDx=0;exitDy=0;exitPerimeter=0;entryX=0.178;entryY=1.043;entryDx=0;entryDy=0;entryPerimeter=0;" parent="1" source="pg8HzuMGLpJnSBFaGJBY-118" target="pg8HzuMGLpJnSBFaGJBY-1" edge="1">
          <mxGeometry width="80" relative="1" as="geometry">
            <mxPoint x="407.67499999999995" y="793.4949999999999" as="sourcePoint" />
            <mxPoint x="75" y="289.5" as="targetPoint" />
            <Array as="points">
              <mxPoint x="50" y="790" />
            </Array>
          </mxGeometry>
        </mxCell>
        <mxCell id="pg8HzuMGLpJnSBFaGJBY-124" value="" style="shape=link;html=1;rounded=0;width=39.56521739130435;" parent="1" edge="1">
          <mxGeometry width="100" relative="1" as="geometry">
            <mxPoint x="704" y="780.0699999999999" as="sourcePoint" />
            <mxPoint x="804" y="780.0699999999999" as="targetPoint" />
            <Array as="points">
              <mxPoint x="754" y="780.5" />
            </Array>
          </mxGeometry>
        </mxCell>
        <mxCell id="pg8HzuMGLpJnSBFaGJBY-125" value="order_items" style="text;html=1;align=center;verticalAlign=middle;whiteSpace=wrap;rounded=0;" parent="1" vertex="1">
          <mxGeometry x="728" y="765.5" width="60" height="30" as="geometry" />
        </mxCell>
        <mxCell id="pg8HzuMGLpJnSBFaGJBY-126" value="" style="endArrow=classic;html=1;rounded=0;entryX=0.971;entryY=0.435;entryDx=0;entryDy=0;entryPerimeter=0;" parent="1" edge="1">
          <mxGeometry width="50" height="50" relative="1" as="geometry">
            <mxPoint x="704.52" y="795.82" as="sourcePoint" />
            <mxPoint x="505.4749999999999" y="795.495" as="targetPoint" />
          </mxGeometry>
        </mxCell>
        <mxCell id="pg8HzuMGLpJnSBFaGJBY-128" value="Manage Order Details" style="text;html=1;align=center;verticalAlign=middle;whiteSpace=wrap;rounded=0;" parent="1" vertex="1">
          <mxGeometry x="522.5" y="740.5" width="170" height="30" as="geometry" />
        </mxCell>
        <mxCell id="pg8HzuMGLpJnSBFaGJBY-129" value="List Of Manage Order" style="text;html=1;align=center;verticalAlign=middle;whiteSpace=wrap;rounded=0;" parent="1" vertex="1">
          <mxGeometry x="534" y="770.5" width="151" height="30" as="geometry" />
        </mxCell>
        <mxCell id="pg8HzuMGLpJnSBFaGJBY-130" value="Manage Order" style="text;html=1;align=center;verticalAlign=middle;whiteSpace=wrap;rounded=0;" parent="1" vertex="1">
          <mxGeometry x="210" y="735.5" width="156" height="30" as="geometry" />
        </mxCell>
        <mxCell id="XZUf6_pb8Y_gErboJfYT-1" value="" style="html=1;verticalAlign=bottom;endArrow=block;curved=0;rounded=0;exitX=0.25;exitY=1;exitDx=0;exitDy=0;entryX=0.026;entryY=0.341;entryDx=0;entryDy=0;entryPerimeter=0;" parent="1" target="XZUf6_pb8Y_gErboJfYT-2" edge="1">
          <mxGeometry width="80" relative="1" as="geometry">
            <mxPoint x="30" y="160" as="sourcePoint" />
            <mxPoint x="410" y="870" as="targetPoint" />
            <Array as="points">
              <mxPoint x="35" y="886" />
            </Array>
          </mxGeometry>
        </mxCell>
        <mxCell id="XZUf6_pb8Y_gErboJfYT-11" value="Logout" style="edgeLabel;html=1;align=center;verticalAlign=middle;resizable=0;points=[];" parent="XZUf6_pb8Y_gErboJfYT-1" vertex="1" connectable="0">
          <mxGeometry x="0.7404" y="11" relative="1" as="geometry">
            <mxPoint x="17" as="offset" />
          </mxGeometry>
        </mxCell>
        <mxCell id="XZUf6_pb8Y_gErboJfYT-2" value="Logout" style="ellipse;whiteSpace=wrap;html=1;aspect=fixed;" parent="1" vertex="1">
          <mxGeometry x="406.5" y="850" width="105" height="105" as="geometry" />
        </mxCell>
        <mxCell id="XZUf6_pb8Y_gErboJfYT-3" value="" style="endArrow=none;html=1;rounded=0;entryX=0.926;entryY=0.271;entryDx=0;entryDy=0;entryPerimeter=0;" parent="1" edge="1">
          <mxGeometry width="50" height="50" relative="1" as="geometry">
            <mxPoint x="413" y="880" as="sourcePoint" />
            <mxPoint x="505" y="880" as="targetPoint" />
          </mxGeometry>
        </mxCell>
        <mxCell id="XZUf6_pb8Y_gErboJfYT-4" value="7.0" style="text;strokeColor=none;align=center;fillColor=none;html=1;verticalAlign=middle;whiteSpace=wrap;rounded=0;" parent="1" vertex="1">
          <mxGeometry x="426" y="853" width="60" height="30" as="geometry" />
        </mxCell>
        <mxCell id="XZUf6_pb8Y_gErboJfYT-7" value="" style="html=1;verticalAlign=bottom;endArrow=block;curved=0;rounded=0;exitX=-0.012;exitY=0.592;exitDx=0;exitDy=0;exitPerimeter=0;entryX=0.178;entryY=1.043;entryDx=0;entryDy=0;entryPerimeter=0;" parent="1" source="XZUf6_pb8Y_gErboJfYT-2" edge="1">
          <mxGeometry width="80" relative="1" as="geometry">
            <mxPoint x="384" y="787" as="sourcePoint" />
            <mxPoint x="20" y="160" as="targetPoint" />
            <Array as="points">
              <mxPoint x="20" y="910" />
            </Array>
          </mxGeometry>
        </mxCell>
        <mxCell id="XZUf6_pb8Y_gErboJfYT-8" value="" style="endArrow=classic;html=1;rounded=0;exitX=0.008;exitY=0.124;exitDx=0;exitDy=0;entryX=0.971;entryY=0.435;entryDx=0;entryDy=0;entryPerimeter=0;exitPerimeter=0;" parent="1" edge="1">
          <mxGeometry width="50" height="50" relative="1" as="geometry">
            <mxPoint x="717" y="915" as="sourcePoint" />
            <mxPoint x="509" y="915" as="targetPoint" />
          </mxGeometry>
        </mxCell>
        <mxCell id="XZUf6_pb8Y_gErboJfYT-9" value="" style="endArrow=classic;html=1;rounded=0;entryX=0.004;entryY=0.837;entryDx=0;entryDy=0;entryPerimeter=0;" parent="1" edge="1">
          <mxGeometry width="50" height="50" relative="1" as="geometry">
            <mxPoint x="509" y="888.3899999999999" as="sourcePoint" />
            <mxPoint x="713.24" y="888" as="targetPoint" />
          </mxGeometry>
        </mxCell>
        <mxCell id="XZUf6_pb8Y_gErboJfYT-10" value="" style="shape=link;html=1;rounded=0;width=39.56521739130435;" parent="1" edge="1">
          <mxGeometry width="100" relative="1" as="geometry">
            <mxPoint x="714" y="902" as="sourcePoint" />
            <mxPoint x="814" y="902" as="targetPoint" />
            <Array as="points">
              <mxPoint x="764" y="902.4300000000001" />
            </Array>
          </mxGeometry>
        </mxCell>
        <mxCell id="XZUf6_pb8Y_gErboJfYT-15" value="admin_master" style="text;html=1;align=center;verticalAlign=middle;resizable=0;points=[];autosize=1;strokeColor=none;fillColor=none;" parent="1" vertex="1">
          <mxGeometry x="716" y="888" width="100" height="30" as="geometry" />
        </mxCell>
        <mxCell id="aNBTyjLecaz21Q9RrSQ9-4" value="" style="endArrow=classic;html=1;rounded=0;exitX=0.008;exitY=0.124;exitDx=0;exitDy=0;exitPerimeter=0;" parent="1" edge="1">
          <mxGeometry width="50" height="50" relative="1" as="geometry">
            <mxPoint x="507" y="770.5" as="sourcePoint" />
            <mxPoint x="712" y="770.75" as="targetPoint" />
          </mxGeometry>
        </mxCell>
        <mxCell id="zvv0ChGVU-nq7waXoE2L-1" value="Response" style="text;html=1;align=center;verticalAlign=middle;resizable=0;points=[];autosize=1;strokeColor=none;fillColor=none;" parent="1" vertex="1">
          <mxGeometry x="580" y="885" width="80" height="30" as="geometry" />
        </mxCell>
        <mxCell id="zvv0ChGVU-nq7waXoE2L-3" value="Response" style="text;html=1;align=center;verticalAlign=middle;resizable=0;points=[];autosize=1;strokeColor=none;fillColor=none;" parent="1" vertex="1">
          <mxGeometry x="260" y="115" width="80" height="30" as="geometry" />
        </mxCell>
        <mxCell id="zvv0ChGVU-nq7waXoE2L-4" value="Response" style="text;html=1;align=center;verticalAlign=middle;resizable=0;points=[];autosize=1;strokeColor=none;fillColor=none;" parent="1" vertex="1">
          <mxGeometry x="248" y="243" width="80" height="30" as="geometry" />
        </mxCell>
        <mxCell id="zvv0ChGVU-nq7waXoE2L-6" value="Response" style="text;html=1;align=center;verticalAlign=middle;resizable=0;points=[];autosize=1;strokeColor=none;fillColor=none;" parent="1" vertex="1">
          <mxGeometry x="248" y="365" width="80" height="30" as="geometry" />
        </mxCell>
        <mxCell id="zvv0ChGVU-nq7waXoE2L-7" value="Response" style="text;html=1;align=center;verticalAlign=middle;resizable=0;points=[];autosize=1;strokeColor=none;fillColor=none;" parent="1" vertex="1">
          <mxGeometry x="248" y="503" width="80" height="30" as="geometry" />
        </mxCell>
        <mxCell id="zvv0ChGVU-nq7waXoE2L-8" value="Response" style="text;html=1;align=center;verticalAlign=middle;resizable=0;points=[];autosize=1;strokeColor=none;fillColor=none;" parent="1" vertex="1">
          <mxGeometry x="243" y="625" width="80" height="30" as="geometry" />
        </mxCell>
        <mxCell id="zvv0ChGVU-nq7waXoE2L-9" value="Response" style="text;html=1;align=center;verticalAlign=middle;resizable=0;points=[];autosize=1;strokeColor=none;fillColor=none;" parent="1" vertex="1">
          <mxGeometry x="243" y="765" width="80" height="30" as="geometry" />
        </mxCell>
        <mxCell id="zvv0ChGVU-nq7waXoE2L-10" value="Response" style="text;html=1;align=center;verticalAlign=middle;resizable=0;points=[];autosize=1;strokeColor=none;fillColor=none;" parent="1" vertex="1">
          <mxGeometry x="243" y="885" width="80" height="30" as="geometry" />
        </mxCell>
        <mxCell id="gbvVwaLDm-3MAn_kK9TS-2" value="Manage Logout Details" style="text;html=1;align=center;verticalAlign=middle;resizable=0;points=[];autosize=1;strokeColor=none;fillColor=none;" vertex="1" parent="1">
          <mxGeometry x="542" y="858" width="150" height="30" as="geometry" />
        </mxCell>
      </root>
    </mxGraphModel>
  </diagram>
</mxfile>
